<?xml version="1.0" encoding="iso-8859-1"?>
<!-- Generator: Adobe Illustrator 21.0.0, SVG Export Plug-In . SVG Version: 6.00 Build 0)  -->
<svg version="1.1" id="Capa_1" xmlns="http://www.w3.org/2000/svg" xmlns:xlink="http://www.w3.org/1999/xlink" x="0px" y="0px"
	 viewBox="0 0 512 512" style="enable-background:new 0 0 512 512;" xml:space="preserve">
<linearGradient id="SVGID_1_" gradientUnits="userSpaceOnUse" x1="254.8086" y1="145.9545" x2="254.8086" y2="2.3445" gradientTransform="matrix(1.0039 0 0 -1.0039 0.1922 516.5638)">
	<stop  offset="0" style="stop-color:#FF4C54"/>
	<stop  offset="1" style="stop-color:#BE3F45"/>
</linearGradient>
<path style="fill:url(#SVGID_1_);" d="M400.786,495.374H111.214c-12.419,0-23.115-8.756-25.568-20.93L35.811,227.105h440.378
	l-49.836,247.338C423.901,486.617,413.205,495.374,400.786,495.374z"/>
<linearGradient id="SVGID_2_" gradientUnits="userSpaceOnUse" x1="369.9021" y1="154.5944" x2="425.162" y2="10.9844" gradientTransform="matrix(1.0039 0 0 -1.0039 0.1922 516.5638)">
	<stop  offset="0" style="stop-color:#FF4C54"/>
	<stop  offset="1" style="stop-color:#BE3F45"/>
</linearGradient>
<path style="fill:url(#SVGID_2_);" d="M365.388,467.022c-0.808,0-1.625-0.059-2.448-0.183c-8.934-1.341-15.09-9.671-13.749-18.605
	l22.748-151.582c1.341-8.935,9.672-15.092,18.605-13.749c8.934,1.341,15.09,9.671,13.749,18.605L381.545,453.09
	C380.328,461.201,373.349,467.022,365.388,467.022z"/>
<linearGradient id="SVGID_3_" gradientUnits="userSpaceOnUse" x1="129.3627" y1="154.5931" x2="184.6127" y2="10.9831" gradientTransform="matrix(1.0039 0 0 -1.0039 0.1922 516.5638)">
	<stop  offset="0" style="stop-color:#FF4C54"/>
	<stop  offset="1" style="stop-color:#BE3F45"/>
</linearGradient>
<path style="fill:url(#SVGID_3_);" d="M146.612,467.022c-7.962,0-14.939-5.821-16.156-13.932l-22.748-151.582
	c-1.341-8.934,4.815-17.263,13.749-18.605c8.932-1.34,17.264,4.815,18.605,13.749l22.748,151.582
	c1.341,8.934-4.815,17.263-13.749,18.605C148.237,466.963,147.419,467.022,146.612,467.022z"/>
<linearGradient id="SVGID_4_" gradientUnits="userSpaceOnUse" x1="293.1064" y1="150.8463" x2="333.4164" y2="7.2363" gradientTransform="matrix(1.0039 0 0 -1.0039 0.1922 516.5638)">
	<stop  offset="0" style="stop-color:#FF4C54"/>
	<stop  offset="1" style="stop-color:#BE3F45"/>
</linearGradient>
<path style="fill:url(#SVGID_4_);" d="M293.321,467.02c-0.282,0-0.565-0.007-0.849-0.022c-9.022-0.462-15.962-8.15-15.502-17.172
	l7.753-151.582c0.461-9.022,8.164-15.945,17.172-15.501c9.022,0.462,15.962,8.15,15.501,17.172l-7.753,151.582
	C309.197,460.235,301.971,467.02,293.321,467.02z"/>
<linearGradient id="SVGID_5_" gradientUnits="userSpaceOnUse" x1="211.0612" y1="150.8477" x2="251.3712" y2="7.2376" gradientTransform="matrix(1.0039 0 0 -1.0039 0.1922 516.5638)">
	<stop  offset="0" style="stop-color:#FF4C54"/>
	<stop  offset="1" style="stop-color:#BE3F45"/>
</linearGradient>
<path style="fill:url(#SVGID_5_);" d="M218.679,467.02c-8.651,0-15.876-6.784-16.323-15.523l-7.753-151.582
	c-0.462-9.022,6.478-16.71,15.502-17.172c9.021-0.458,16.711,6.478,17.172,15.501l7.753,151.582
	c0.462,9.022-6.478,16.71-15.502,17.172C219.245,467.013,218.96,467.02,218.679,467.02z"/>
<linearGradient id="SVGID_6_" gradientUnits="userSpaceOnUse" x1="254.8086" y1="64.9245" x2="254.8086" y2="401.4044" gradientTransform="matrix(1.0039 0 0 -1.0039 0.1922 516.5638)">
	<stop  offset="0" style="stop-color:#BE3F45;stop-opacity:0"/>
	<stop  offset="1" style="stop-color:#BE3F45"/>
</linearGradient>
<path style="fill:url(#SVGID_6_);" d="M43.54,265.465l229.908,229.908h127.337c12.419,0,23.115-8.756,25.568-20.93l49.836-247.338
	H35.811L43.54,265.465z"/>
<linearGradient id="SVGID_7_" gradientUnits="userSpaceOnUse" x1="254.8086" y1="305.6745" x2="254.8086" y2="228.2045" gradientTransform="matrix(1.0039 0 0 -1.0039 0.1922 516.5638)">
	<stop  offset="0" style="stop-color:#FFB92D"/>
	<stop  offset="1" style="stop-color:#F59500"/>
</linearGradient>
<path style="fill:url(#SVGID_7_);" d="M471.105,265.273H40.895C18.31,265.273,0,246.964,0,224.379l0,0
	c0-22.585,18.31-40.895,40.895-40.895h430.211c22.585,0,40.895,18.31,40.895,40.895l0,0C512,246.964,493.69,265.273,471.105,265.273
	z"/>
<linearGradient id="SVGID_8_" gradientUnits="userSpaceOnUse" x1="122.2686" y1="283.9945" x2="73.5386" y2="332.7245" gradientTransform="matrix(1.0039 0 0 -1.0039 0.1922 516.5638)">
	<stop  offset="0" style="stop-color:#FFB92D"/>
	<stop  offset="1" style="stop-color:#F59500"/>
</linearGradient>
<circle style="fill:url(#SVGID_8_);" cx="115.863" cy="224.378" r="33.26"/>
<linearGradient id="SVGID_9_" gradientUnits="userSpaceOnUse" x1="109.2079" y1="297.0537" x2="150.7579" y2="255.5138" gradientTransform="matrix(1.0039 0 0 -1.0039 0.1922 516.5638)">
	<stop  offset="0" style="stop-color:#F2F2F2"/>
	<stop  offset="1" style="stop-color:#C3C3C3"/>
</linearGradient>
<circle style="fill:url(#SVGID_9_);" cx="115.863" cy="224.378" r="28.351"/>
<linearGradient id="SVGID_10_" gradientUnits="userSpaceOnUse" x1="182.9891" y1="249.875" x2="26.7391" y2="406.125" gradientTransform="matrix(1.0039 0 0 -1.0039 0.1922 516.5638)">
	<stop  offset="0" style="stop-color:#BE3F45;stop-opacity:0"/>
	<stop  offset="1" style="stop-color:#BE3F45"/>
</linearGradient>
<path style="fill:url(#SVGID_10_);" d="M153.491,183.484h-36.299l-6.415,13.006l0,0l-10.645,21.582
	c-3.295,6.68-1.6,14.512,3.634,19.297l27.904,27.904h103.609L153.491,183.484z"/>
<linearGradient id="SVGID_11_" gradientUnits="userSpaceOnUse" x1="160.1968" y1="253.5326" x2="103.0168" y2="310.7126" gradientTransform="matrix(1.0039 0 0 -1.0039 0.1922 516.5638)">
	<stop  offset="0" style="stop-color:#C3C3C3;stop-opacity:0"/>
	<stop  offset="1" style="stop-color:#777777"/>
</linearGradient>
<path style="fill:url(#SVGID_11_);" d="M103.766,237.369l15.192,15.192c14.203-1.542,25.261-13.569,25.261-28.183
	c0-15.659-12.695-28.354-28.354-28.354c-1.738,0-3.437,0.165-5.089,0.465l-10.645,21.582
	C96.838,224.752,98.533,232.583,103.766,237.369z"/>
<linearGradient id="SVGID_12_" gradientUnits="userSpaceOnUse" x1="151.3578" y1="391.6031" x2="175.5278" y2="377.8831" gradientTransform="matrix(1.0039 0 0 -1.0039 0.1922 516.5638)">
	<stop  offset="0" style="stop-color:#FFF465"/>
	<stop  offset="1" style="stop-color:#FFE600"/>
</linearGradient>
<path style="fill:url(#SVGID_12_);" d="M114.791,241.669c-2.43,0-4.896-0.543-7.223-1.692c-8.103-3.996-11.432-13.804-7.436-21.906
	L194.98,25.756c3.997-8.103,13.804-11.433,21.907-7.435c8.103,3.996,11.432,13.804,7.435,21.906l-94.847,192.315
	C126.626,238.318,120.824,241.669,114.791,241.669z"/>
<linearGradient id="SVGID_13_" gradientUnits="userSpaceOnUse" x1="387.3486" y1="283.9945" x2="436.0786" y2="332.7245" gradientTransform="matrix(1.0039 0 0 -1.0039 0.1922 516.5638)">
	<stop  offset="0" style="stop-color:#FFB92D"/>
	<stop  offset="1" style="stop-color:#F59500"/>
</linearGradient>
<circle style="fill:url(#SVGID_13_);" cx="396.137" cy="224.378" r="33.26"/>
<linearGradient id="SVGID_14_" gradientUnits="userSpaceOnUse" x1="441.0477" y1="252.9036" x2="304.1477" y2="389.8036" gradientTransform="matrix(1.0039 0 0 -1.0039 0.1922 516.5638)">
	<stop  offset="0" style="stop-color:#BE3F45;stop-opacity:0"/>
	<stop  offset="1" style="stop-color:#BE3F45"/>
</linearGradient>
<path style="fill:url(#SVGID_14_);" d="M476.275,264.936l-57.171-57.17c-1.769-2.442-3.916-4.589-6.358-6.358l-17.924-17.924
	h-36.878l13.597,26.789l10.983,22.27c0.999,2.025,2.366,3.745,3.974,5.133l27.598,27.598h57.009
	C472.858,265.273,474.581,265.15,476.275,264.936z"/>
<linearGradient id="SVGID_15_" gradientUnits="userSpaceOnUse" x1="400.4093" y1="297.0537" x2="358.8593" y2="255.5138" gradientTransform="matrix(1.0039 0 0 -1.0039 0.1922 516.5638)">
	<stop  offset="0" style="stop-color:#F2F2F2"/>
	<stop  offset="1" style="stop-color:#C3C3C3"/>
</linearGradient>
<circle style="fill:url(#SVGID_15_);" cx="396.137" cy="224.378" r="28.351"/>
<linearGradient id="SVGID_16_" gradientUnits="userSpaceOnUse" x1="434.6755" y1="259.2814" x2="375.9955" y2="317.9614" gradientTransform="matrix(1.0039 0 0 -1.0039 0.1922 516.5638)">
	<stop  offset="0" style="stop-color:#C3C3C3;stop-opacity:0"/>
	<stop  offset="1" style="stop-color:#777777"/>
</linearGradient>
<path style="fill:url(#SVGID_16_);" d="M424.487,224.379c0-15.659-12.695-28.354-28.354-28.354
	c-10.522,0-19.698,5.736-24.591,14.248l10.983,22.27c0.999,2.025,2.366,3.745,3.974,5.133l14.612,14.612
	C414.396,249.934,424.487,238.339,424.487,224.379z"/>
<linearGradient id="SVGID_17_" gradientUnits="userSpaceOnUse" x1="358.2594" y1="391.6031" x2="334.0894" y2="377.8831" gradientTransform="matrix(1.0039 0 0 -1.0039 0.1922 516.5638)">
	<stop  offset="0" style="stop-color:#FFE600"/>
	<stop  offset="1" style="stop-color:#FFF465"/>
</linearGradient>
<path style="fill:url(#SVGID_17_);" d="M397.209,241.669c2.431,0,4.896-0.543,7.223-1.692c8.103-3.996,11.432-13.804,7.436-21.906
	L317.02,25.756c-3.997-8.103-13.804-11.433-21.907-7.435c-8.103,3.996-11.432,13.804-7.435,21.906l94.848,192.315
	C385.374,238.318,391.176,241.669,397.209,241.669z"/>
<linearGradient id="SVGID_18_" gradientUnits="userSpaceOnUse" x1="404.9112" y1="465.7001" x2="551.9312" y2="318.6871" gradientTransform="matrix(1.0039 0 0 -1.0039 0.1922 516.5638)">
	<stop  offset="0" style="stop-color:#A7F3CE"/>
	<stop  offset="1" style="stop-color:#61DB99"/>
</linearGradient>
<circle style="fill:url(#SVGID_18_);" cx="443.141" cy="85.485" r="68.859"/>
<linearGradient id="SVGID_19_" gradientUnits="userSpaceOnUse" x1="488.2109" y1="382.4068" x2="411.3909" y2="459.2168" gradientTransform="matrix(1.0039 0 0 -1.0039 0.1922 516.5638)">
	<stop  offset="0" style="stop-color:#61DB99;stop-opacity:0"/>
	<stop  offset="1" style="stop-color:#009E74"/>
</linearGradient>
<path style="fill:url(#SVGID_19_);" d="M508.54,107.088l-54.179-55.427h-22.44v22.607h-22.607v22.44l54.649,54.431
	C484.986,144.478,501.637,128.001,508.54,107.088z"/>
<polygon style="fill:#FFFFFF;" points="476.968,74.269 454.361,74.269 454.361,51.661 431.921,51.661 431.921,74.269 
	409.314,74.269 409.314,96.708 431.921,96.708 431.921,119.316 454.361,119.316 454.361,96.708 476.968,96.708 "/>
<g>
</g>
<g>
</g>
<g>
</g>
<g>
</g>
<g>
</g>
<g>
</g>
<g>
</g>
<g>
</g>
<g>
</g>
<g>
</g>
<g>
</g>
<g>
</g>
<g>
</g>
<g>
</g>
<g>
</g>
</svg>
